<svg version="1.1" id="Layer_1" xmlns="http://www.w3.org/2000/svg" xmlns:xlink="http://www.w3.org/1999/xlink" x="0px" y="0px"
	 width="100%" viewBox="0 0 1380 712" enable-background="new 0 0 1380 712" xml:space="preserve">
<path fill="#E4D3B6" opacity="1.000000" stroke="none" 
	d="
M1381.000000,115.000000 
	C1381.000000,314.289825 1381.000000,513.579651 1381.000000,713.000000 
	C951.637329,713.000000 522.274597,713.000000 92.186874,712.707214 
	C93.901695,709.919495 96.374245,707.455566 98.775436,704.923950 
	C106.815041,696.447632 113.888596,694.845642 124.824646,699.073608 
	C129.565964,700.906677 135.088837,699.588684 136.702225,695.040771 
	C138.714005,689.369812 140.806625,683.102173 140.336395,677.296936 
	C139.077911,661.760620 126.416901,651.925232 110.775673,652.500549 
	C101.411911,652.844910 92.025139,652.563721 82.326881,652.563721 
	C90.488571,637.100220 88.084709,621.299194 81.977966,605.642334 
	C79.382088,598.986816 76.210487,592.557495 73.372574,585.994263 
	C66.945908,571.131348 63.698837,555.908997 68.416534,539.847412 
	C69.369629,536.602539 69.680725,533.426208 66.324242,531.434387 
	C63.103909,529.523376 60.302280,530.988831 57.690968,533.133667 
	C52.608086,537.308350 47.464443,541.409119 42.345978,545.540527 
	C41.918987,545.394714 41.491993,545.248901 41.065002,545.103088 
	C41.369209,539.582031 42.041592,534.046021 41.817467,528.546570 
	C41.710388,525.919128 40.557293,522.650818 38.706169,520.942688 
	C36.110836,518.548035 33.113834,520.428467 30.758446,522.583435 
	C24.131569,528.646484 17.438408,534.639221 10.904283,540.800537 
	C7.459710,544.048584 4.292482,547.590698 1.000006,551.000000 
	C1.000000,367.708374 1.000000,184.416748 1.000000,1.000000 
	C421.029358,1.000000 841.058777,1.000000 1261.786377,1.301541 
	C1260.746582,3.615166 1258.995239,5.615939 1257.272583,7.641112 
	C1242.734375,24.733158 1237.703735,44.613178 1241.680542,66.362335 
	C1247.825439,99.969948 1267.145386,124.630386 1295.890381,142.254578 
	C1310.191895,151.023254 1325.911133,155.674728 1342.629150,156.446014 
	C1345.255737,156.567184 1348.859253,154.866486 1350.478271,152.804565 
	C1352.743042,149.920273 1351.261841,146.481415 1348.461670,143.997940 
	C1347.715454,143.336014 1346.981934,142.657410 1346.273315,141.955490 
	C1336.866333,132.636719 1328.753296,122.399834 1323.735962,109.990654 
	C1323.048828,108.291283 1322.546509,106.517151 1322.268066,105.693008 
	C1333.353638,108.986176 1344.107544,113.200417 1355.257568,115.157524 
	C1363.572998,116.617081 1372.400513,115.158836 1381.000000,115.000000 
M739.618225,652.144226 
	C741.610474,655.997803 743.614197,659.897766 749.093384,658.108704 
	C749.846130,657.862915 750.380432,656.948181 751.015869,656.343140 
	C750.282349,655.880981 749.582214,655.350952 748.808411,654.970825 
	C747.265320,654.212952 745.681702,653.537354 744.114868,652.827759 
	C745.561218,651.473389 746.992310,650.102112 748.461731,648.773254 
	C749.012451,648.275269 749.652161,647.875671 750.332764,647.370850 
	C746.599731,644.541870 743.287231,646.078064 741.031677,651.133545 
	C740.676880,651.928894 739.510925,652.362305 738.698975,652.059570 
	C738.501160,650.421326 738.586853,648.669861 737.995361,647.188843 
	C737.660278,646.349731 736.054993,645.287659 735.295410,645.469421 
	C731.083191,646.477356 727.679321,657.081482 730.504089,661.203674 
	C732.450195,655.578674 734.858337,655.708130 737.461121,661.745728 
	C737.882080,661.361511 738.303101,660.977295 738.724060,660.593079 
	C738.724060,657.995239 738.724060,655.397461 739.618225,652.144226 
M631.160583,325.758362 
	C632.733826,326.465668 634.506714,328.047424 635.848511,327.741028 
	C645.974854,325.428833 655.890137,322.462311 661.989380,313.001465 
	C666.507996,305.992340 666.071777,297.211609 660.750122,291.340790 
	C655.053528,281.828735 646.260925,277.563293 635.579407,276.606110 
	C631.835449,276.270599 629.098816,277.201813 628.915710,281.839325 
	C628.443420,293.799103 627.810730,305.753784 627.099976,317.702057 
	C626.899597,321.069794 627.881042,323.542480 631.160583,325.758362 
M719.923035,335.032349 
	C724.553406,339.101959 729.299561,337.694458 730.331482,331.696320 
	C731.214478,326.564423 731.558777,321.339844 732.159546,315.993988 
	C740.893799,317.245361 748.122498,315.652557 753.752014,309.455231 
	C759.348816,303.294006 759.434631,295.361694 753.787354,289.326965 
	C750.328247,284.181030 745.722900,280.597565 739.717041,278.847168 
	C728.441223,275.560791 721.445068,280.060638 720.168396,291.690247 
	C718.845032,303.744995 717.545959,315.809601 716.694641,327.902130 
	C716.548584,329.976532 718.695129,332.212311 719.923035,335.032349 
M706.766602,285.343842 
	C698.828064,273.923096 684.064514,274.902863 676.981750,281.508423 
	C664.732422,292.932465 667.334900,317.761841 682.042786,326.948425 
	C687.293762,330.740143 692.736816,329.859344 698.042969,327.299225 
	C710.504639,321.286774 716.730164,300.741730 709.801697,288.698639 
	C709.177612,287.613739 708.042175,286.822968 706.766602,285.343842 
M792.435669,327.899872 
	C791.867188,333.027100 791.409180,338.169800 790.693359,343.276367 
	C790.167664,347.026611 791.716187,348.450378 794.856201,348.386200 
	C797.949829,345.506714 794.252502,339.448212 800.328369,338.215240 
	C801.331055,346.096741 801.331055,346.096741 805.829468,346.080658 
	C806.551819,341.069794 807.332275,336.011566 807.988220,330.937256 
	C808.263733,328.806122 808.618347,326.582977 808.268250,324.514862 
	C808.082886,323.419861 806.464111,322.567535 805.492432,321.605652 
	C804.680664,322.510406 803.495728,323.289459 803.139221,324.347595 
	C802.509766,326.216003 802.566895,328.313202 801.960083,330.193085 
	C801.715759,330.950195 800.479431,331.387115 799.694458,331.969757 
	C799.211426,331.261169 798.397217,330.590302 798.311462,329.836487 
	C798.106262,328.034302 798.480774,326.147797 798.143982,324.386627 
	C797.974426,323.500153 796.835083,322.291748 796.005737,322.179596 
	C795.153076,322.064301 793.822205,322.893829 793.289062,323.699371 
	C792.698242,324.591980 792.773804,325.925629 792.435669,327.899872 
M760.492798,329.665924 
	C762.735474,328.979034 764.978088,328.292114 767.359009,327.562866 
	C767.539490,323.878448 766.165649,321.947784 762.200745,322.075531 
	C758.607849,322.191315 754.709045,321.151642 754.195618,326.750824 
	C753.756958,331.535065 752.537659,336.258575 752.277771,341.042297 
	C752.188232,342.691925 753.752380,345.729767 754.902954,345.906311 
	C758.432678,346.447998 762.148315,346.067841 765.735474,345.607758 
	C766.226074,345.544861 766.961060,342.792816 766.556396,341.648987 
	C766.160583,340.530090 764.452148,339.875549 763.129883,338.873138 
	C765.056519,335.340546 764.887878,332.289825 760.492798,329.665924 
M784.207214,329.915405 
	C784.587219,328.554657 785.564453,326.973755 785.168335,325.899017 
	C784.817566,324.947601 782.925842,323.994202 781.736633,324.021118 
	C776.739868,324.134247 773.446899,327.056976 771.498169,331.427307 
	C769.832214,335.163452 770.003662,338.871857 772.894104,342.072998 
	C776.312378,345.858673 780.724792,346.048248 785.249207,345.024170 
	C786.102356,344.831024 787.309204,343.138428 787.171631,342.341522 
	C786.960022,341.115601 785.937256,339.728912 784.856628,339.053223 
	C784.057800,338.553680 782.576538,339.301361 781.475098,339.092987 
	C779.852417,338.786041 778.297241,338.122650 776.713318,337.611053 
	C777.363037,335.836243 777.614380,333.710052 778.779175,332.389557 
	C779.856262,331.168396 781.911621,330.810211 784.207214,329.915405 
M743.407837,333.692780 
	C744.861938,331.859802 746.316101,330.026825 747.770203,328.193848 
	C748.160706,328.423462 748.551147,328.653107 748.941589,328.882751 
	C749.368347,325.447418 747.868408,323.608582 744.297974,323.543671 
	C741.481018,323.492462 738.635498,323.254883 735.858643,323.579315 
	C734.683655,323.716583 733.205933,324.884369 732.726746,325.965363 
	C732.449402,326.591034 733.702148,328.663239 734.582886,328.898376 
	C738.049683,329.823944 737.675476,332.183716 737.401550,334.759583 
	C737.155762,337.071075 737.120422,339.404846 736.989624,341.728638 
	C736.783752,345.387787 738.452332,346.818542 742.393372,346.161346 
	C742.727295,342.226501 743.048645,338.439697 743.407837,333.692780 
M612.984436,647.785339 
	C612.984436,651.352417 612.984436,654.919495 612.984436,660.238770 
	C616.746704,657.736633 619.919495,656.458008 621.840942,654.141479 
	C624.329041,651.141724 622.740051,647.938293 619.634705,646.202576 
	C617.584106,645.056274 614.658630,642.338928 612.984436,647.785339 
M703.956787,655.830505 
	C703.956787,657.654663 703.956787,659.478821 703.956787,661.303040 
	C704.504211,661.414612 705.051697,661.526184 705.599121,661.637817 
	C706.297852,659.733093 706.996521,657.828430 707.826172,655.566833 
	C707.999939,655.529785 708.788818,655.591553 709.225281,655.228943 
	C711.178650,653.606018 713.031555,651.862244 714.920776,650.162109 
	C712.990784,648.441956 711.302917,645.781921 709.077515,645.208801 
	C705.150269,644.197449 704.872437,647.776428 704.490417,650.593384 
	C704.291016,652.064026 704.164917,653.544617 703.956787,655.830505 
M681.956177,648.456909 
	C680.333618,644.520081 677.101074,643.633850 673.839233,645.451782 
	C670.109192,647.530396 669.906067,651.661072 671.206970,655.194031 
	C671.823364,656.868164 674.400452,658.869141 676.104004,658.882751 
	C680.034973,658.914246 681.587402,655.745239 682.049988,652.156738 
	C682.176270,651.177063 682.058655,650.166016 681.956177,648.456909 
M625.770691,648.578125 
	C625.556030,650.373352 624.924866,652.240540 625.219727,653.947754 
	C625.721313,656.852112 627.301270,660.150940 630.658325,658.848572 
	C633.090759,657.904846 635.621765,654.962646 636.289551,652.431641 
	C636.829407,650.385681 635.322571,646.693848 633.523926,645.400574 
	C630.938477,643.541565 627.758301,644.610901 625.770691,648.578125 
M720.453918,658.988464 
	C722.366882,658.456177 724.279846,657.923828 726.192810,657.391479 
	C724.595581,656.696777 722.987854,656.024292 721.413452,655.281067 
	C721.200989,655.180725 721.156433,654.724670 720.916504,654.153137 
	C722.114990,653.443298 723.361694,652.704895 724.959106,651.758789 
	C723.559326,650.566895 722.569397,649.723938 721.196533,648.554871 
	C723.353821,647.870361 724.904358,647.378418 726.724121,646.801025 
	C723.370544,643.328186 719.602539,643.325378 718.798950,646.495972 
	C717.947449,649.855530 717.480591,653.338928 717.208923,656.796753 
	C717.155701,657.474426 718.762329,658.282471 720.453918,658.988464 
M657.908447,655.539673 
	C657.377747,654.833557 658.447876,652.827820 660.135376,651.635132 
	C659.015930,650.650330 657.953003,649.715332 656.691162,648.605225 
	C658.826843,647.821655 660.469604,647.218994 663.296387,646.181824 
	C659.196289,644.238586 655.912964,642.359802 654.361328,646.426086 
	C652.948792,650.127991 653.105835,654.428711 652.477905,659.168335 
	C656.131287,658.866821 659.002686,658.629883 661.874146,658.392883 
	C661.933899,657.807068 661.993652,657.221252 662.053406,656.635376 
	C660.967041,656.270020 659.880676,655.904602 657.908447,655.539673 
M759.216553,658.846375 
	C760.482605,658.399841 761.748718,657.953247 763.014771,657.506714 
	C762.926331,657.120239 762.837830,656.733765 762.749390,656.347351 
	C760.931519,655.815674 759.113647,655.283997 756.317566,654.466187 
	C758.595764,653.444275 759.818787,652.895691 761.585144,652.103333 
	C760.029602,650.746887 758.970337,649.823242 757.550354,648.584961 
	C759.761230,647.866333 761.425293,647.325439 763.548401,646.635315 
	C759.270447,643.359009 755.806702,643.548828 755.167358,646.704346 
	C754.390320,650.538818 754.085815,654.469055 753.510254,658.867310 
	C755.554443,658.867310 756.976257,658.867310 759.216553,658.846375 
M684.655457,656.647034 
	C684.820312,658.142639 684.985229,659.638245 685.150085,661.133850 
	C685.740112,661.155029 686.330139,661.176208 686.920166,661.197388 
	C687.422241,659.247375 687.924255,657.297302 688.334656,655.703430 
	C690.183044,654.783630 691.822998,653.967590 694.782104,652.495056 
	C691.697937,651.569092 690.283508,651.144409 687.608154,650.341187 
	C690.829468,649.080261 692.896362,648.271179 695.211121,647.365112 
	C691.530090,644.150757 686.612122,645.151184 685.711365,648.935547 
	C685.177734,651.177368 685.071167,653.520935 684.655457,656.647034 
M650.010620,648.544128 
	C647.611511,648.409058 647.611511,648.409058 644.437866,653.947144 
	C643.111816,651.521790 641.773560,649.074097 640.435303,646.626404 
	C639.734680,647.013672 639.034058,647.400879 638.333435,647.788086 
	C640.018494,652.156738 641.703613,656.525391 643.388672,660.893982 
	C644.055298,660.866943 644.721924,660.839905 645.388550,660.812866 
	C646.954102,656.924683 648.519592,653.036499 650.010620,648.544128 
z"/>
<path fill="#E3D2B5" opacity="1.000000" stroke="none" 
	d="
M1381.000000,44.999977 
	C1381.000000,65.354225 1381.000000,85.708458 1380.605469,106.635925 
	C1375.604370,107.811760 1371.010498,108.798759 1366.389404,108.947945 
	C1349.654541,109.488197 1334.790283,103.681297 1320.756592,95.097641 
	C1319.151733,94.116104 1316.895142,94.200462 1314.940674,93.790588 
	C1314.552124,95.776527 1313.605591,97.839035 1313.865845,99.735992 
	C1315.539795,111.934326 1321.203735,122.447830 1328.568237,132.042572 
	C1333.074707,137.913849 1338.153809,143.345612 1342.994385,148.996643 
	C1342.697021,149.201874 1342.454346,149.512207 1342.213989,149.510406 
	C1341.221313,149.502991 1340.223877,149.445801 1339.237793,149.327240 
	C1301.046021,144.735199 1274.293579,123.912201 1256.808594,90.497200 
	C1241.467773,61.180206 1243.325684,27.590656 1270.834839,3.254221 
	C1271.425659,2.731592 1271.620483,1.761411 1272.000000,0.999996 
	C1284.354248,1.000000 1296.708496,1.000000 1309.702759,1.441612 
	C1310.209229,7.371812 1310.060791,12.860086 1309.945801,18.349066 
	C1309.803467,25.149628 1310.297607,25.535288 1316.889282,24.987005 
	C1320.026123,24.726076 1323.214600,24.570831 1326.343872,24.818565 
	C1342.612061,26.106436 1357.211792,32.428467 1371.376099,40.011631 
	C1374.561401,41.716991 1377.790894,43.339382 1381.000000,44.999977 
z"/>
<path fill="#E3D2B5" opacity="1.000000" stroke="none" 
	d="
M81.000000,713.000000 
	C54.383926,713.000000 27.767851,713.000000 1.000000,713.000000 
	C1.000000,662.979187 1.000000,612.958252 1.258414,562.778992 
	C11.152592,550.049255 21.630856,538.319153 34.546772,528.615906 
	C34.546772,534.597534 34.278236,539.926086 34.596832,545.219299 
	C35.575256,561.475037 42.521374,575.567749 50.495506,589.403320 
	C56.295738,599.466980 61.794430,609.792175 66.352074,620.460266 
	C71.139542,631.666260 73.999466,643.498901 72.019547,655.973938 
	C71.347054,660.211243 74.071754,661.032898 77.573341,660.858704 
	C88.550369,660.312378 99.528694,659.788757 110.508743,659.307312 
	C127.685829,658.553955 138.018265,672.931763 132.127914,688.989319 
	C130.618408,693.104309 128.767517,693.520935 125.087479,691.857910 
	C118.162140,688.728210 110.409889,688.317261 104.427498,692.508789 
	C95.979759,698.427795 88.750275,706.085571 81.000000,713.000000 
z"/>
<path fill="#0B0A09" opacity="1.000000" stroke="none" 
	d="
M81.458069,713.000000 
	C88.750275,706.085571 95.979759,698.427795 104.427498,692.508789 
	C110.409889,688.317261 118.162140,688.728210 125.087479,691.857910 
	C128.767517,693.520935 130.618408,693.104309 132.127914,688.989319 
	C138.018265,672.931763 127.685829,658.553955 110.508743,659.307312 
	C99.528694,659.788757 88.550369,660.312378 77.573341,660.858704 
	C74.071754,661.032898 71.347054,660.211243 72.019547,655.973938 
	C73.999466,643.498901 71.139542,631.666260 66.352074,620.460266 
	C61.794430,609.792175 56.295738,599.466980 50.495506,589.403320 
	C42.521374,575.567749 35.575256,561.475037 34.596832,545.219299 
	C34.278236,539.926086 34.546772,534.597534 34.546772,528.615906 
	C21.630856,538.319153 11.152592,550.049255 1.258414,562.310303 
	C1.000000,558.638733 1.000000,555.277405 1.000006,551.458069 
	C4.292482,547.590698 7.459710,544.048584 10.904283,540.800537 
	C17.438408,534.639221 24.131569,528.646484 30.758446,522.583435 
	C33.113834,520.428467 36.110836,518.548035 38.706169,520.942688 
	C40.557293,522.650818 41.710388,525.919128 41.817467,528.546570 
	C42.041592,534.046021 41.369209,539.582031 41.065002,545.103088 
	C41.491993,545.248901 41.918987,545.394714 42.345978,545.540527 
	C47.464443,541.409119 52.608086,537.308350 57.690968,533.133667 
	C60.302280,530.988831 63.103909,529.523376 66.324242,531.434387 
	C69.680725,533.426208 69.369629,536.602539 68.416534,539.847412 
	C63.698837,555.908997 66.945908,571.131348 73.372574,585.994263 
	C76.210487,592.557495 79.382088,598.986816 81.977966,605.642334 
	C88.084709,621.299194 90.488571,637.100220 82.326881,652.563721 
	C92.025139,652.563721 101.411911,652.844910 110.775673,652.500549 
	C126.416901,651.925232 139.077911,661.760620 140.336395,677.296936 
	C140.806625,683.102173 138.714005,689.369812 136.702225,695.040771 
	C135.088837,699.588684 129.565964,700.906677 124.824646,699.073608 
	C113.888596,694.845642 106.815041,696.447632 98.775436,704.923950 
	C96.374245,707.455566 93.901695,709.919495 91.730919,712.707214 
	C88.638710,713.000000 85.277428,713.000000 81.458069,713.000000 
M62.007160,574.347473 
	C58.725655,563.061951 58.482063,551.644714 60.822750,539.947021 
	C55.399559,543.781616 50.639809,547.895081 45.684738,551.758118 
	C43.388966,553.547913 42.478096,555.289001 43.772644,558.095215 
	C48.009453,567.279541 51.390411,576.952576 56.478966,585.629333 
	C65.457382,600.938782 73.647491,616.450745 77.593735,633.896118 
	C78.089401,636.087280 78.496811,638.298523 79.222687,641.863831 
	C81.968918,628.796997 80.309021,618.640686 73.597176,602.802124 
	C69.706070,593.619934 65.990616,584.363281 62.007160,574.347473 
z"/>
<path fill="#0C0B09" opacity="1.000000" stroke="none" 
	d="
M1271.545898,0.999996 
	C1271.620483,1.761411 1271.425659,2.731592 1270.834839,3.254221 
	C1243.325684,27.590656 1241.467773,61.180206 1256.808594,90.497200 
	C1274.293579,123.912201 1301.046021,144.735199 1339.237793,149.327240 
	C1340.223877,149.445801 1341.221313,149.502991 1342.213989,149.510406 
	C1342.454346,149.512207 1342.697021,149.201874 1342.994385,148.996643 
	C1338.153809,143.345612 1333.074707,137.913849 1328.568237,132.042572 
	C1321.203735,122.447830 1315.539795,111.934326 1313.865845,99.735992 
	C1313.605591,97.839035 1314.552124,95.776527 1314.940674,93.790588 
	C1316.895142,94.200462 1319.151733,94.116104 1320.756592,95.097641 
	C1334.790283,103.681297 1349.654541,109.488197 1366.389404,108.947945 
	C1371.010498,108.798759 1375.604370,107.811760 1380.605469,107.104584 
	C1381.000000,109.370560 1381.000000,111.741112 1381.000000,114.555832 
	C1372.400513,115.158836 1363.572998,116.617081 1355.257568,115.157524 
	C1344.107544,113.200417 1333.353638,108.986176 1322.268066,105.693008 
	C1322.546509,106.517151 1323.048828,108.291283 1323.735962,109.990654 
	C1328.753296,122.399834 1336.866333,132.636719 1346.273315,141.955490 
	C1346.981934,142.657410 1347.715454,143.336014 1348.461670,143.997940 
	C1351.261841,146.481415 1352.743042,149.920273 1350.478271,152.804565 
	C1348.859253,154.866486 1345.255737,156.567184 1342.629150,156.446014 
	C1325.911133,155.674728 1310.191895,151.023254 1295.890381,142.254578 
	C1267.145386,124.630386 1247.825439,99.969948 1241.680542,66.362335 
	C1237.703735,44.613178 1242.734375,24.733158 1257.272583,7.641112 
	C1258.995239,5.615939 1260.746582,3.615166 1262.242310,1.301541 
	C1265.030640,1.000000 1268.061157,1.000000 1271.545898,0.999996 
z"/>
<path fill="#0B0A09" opacity="1.000000" stroke="none" 
	d="
M1381.000000,44.555817 
	C1377.790894,43.339382 1374.561401,41.716991 1371.376099,40.011631 
	C1357.211792,32.428467 1342.612061,26.106436 1326.343872,24.818565 
	C1323.214600,24.570831 1320.026123,24.726076 1316.889282,24.987005 
	C1310.297607,25.535288 1309.803467,25.149628 1309.945801,18.349066 
	C1310.060791,12.860086 1310.209229,7.371812 1310.171387,1.441612 
	C1312.041626,1.000000 1314.083374,1.000000 1316.641357,1.459274 
	C1317.157715,6.176144 1317.157715,10.433739 1317.157715,15.339731 
	C1334.311523,6.004302 1351.034790,9.201941 1367.687744,15.790519 
	C1372.118530,17.543556 1376.562256,19.264380 1381.000000,20.999998 
	C1381.000000,23.041666 1381.000000,25.083334 1380.710938,27.862392 
	C1371.921265,25.254103 1363.542725,21.540073 1354.884033,18.671906 
	C1347.067505,16.082720 1338.924072,15.006676 1329.762451,17.707291 
	C1331.381836,18.293566 1332.091064,18.685364 1332.842896,18.802427 
	C1345.977417,20.847462 1358.150024,25.660604 1369.941895,31.596373 
	C1373.606201,33.440891 1377.312744,35.201160 1381.000000,36.999992 
	C1381.000000,39.370556 1381.000000,41.741116 1381.000000,44.555817 
z"/>
<path fill="#E0CFB3" opacity="1.000000" stroke="none" 
	d="
M1381.000000,20.530956 
	C1376.562256,19.264380 1372.118530,17.543556 1367.687744,15.790519 
	C1351.034790,9.201941 1334.311523,6.004302 1317.157715,15.339731 
	C1317.157715,10.433739 1317.157715,6.176144 1317.078857,1.459274 
	C1338.221436,1.000000 1359.442749,1.000000 1381.000000,1.000000 
	C1381.000000,7.350028 1381.000000,13.705971 1381.000000,20.530956 
z"/>
<path fill="#D5C6AA" opacity="1.000000" stroke="none" 
	d="
M1381.000000,36.550014 
	C1377.312744,35.201160 1373.606201,33.440891 1369.941895,31.596373 
	C1358.150024,25.660604 1345.977417,20.847462 1332.842896,18.802427 
	C1332.091064,18.685364 1331.381836,18.293566 1329.762451,17.707291 
	C1338.924072,15.006676 1347.067505,16.082720 1354.884033,18.671906 
	C1363.542725,21.540073 1371.921265,25.254103 1380.710938,28.299892 
	C1381.000000,30.700014 1381.000000,33.400028 1381.000000,36.550014 
z"/>
<path fill="#040403" opacity="1.000000" stroke="none" 
	d="
M681.815674,326.293793 
	C667.334900,317.761841 664.732422,292.932465 676.981750,281.508423 
	C684.064514,274.902863 698.828064,273.923096 706.944397,286.019836 
	C713.824890,309.047302 703.425171,325.320099 681.815674,326.293793 
M694.834045,289.220306 
	C689.111023,285.892822 683.578064,287.415649 682.081543,293.691345 
	C680.860535,298.811798 681.174500,304.354065 681.287781,309.699158 
	C681.317383,311.096680 683.135254,312.456329 684.667969,314.411530 
	C686.847412,314.322723 689.405945,314.945129 691.140076,314.020844 
	C698.284790,310.212952 700.437317,296.090668 694.834045,289.220306 
z"/>
<path fill="#040403" opacity="1.000000" stroke="none" 
	d="
M719.782654,334.373535 
	C718.695129,332.212311 716.548584,329.976532 716.694641,327.902130 
	C717.545959,315.809601 718.845032,303.744995 720.168396,291.690247 
	C721.445068,280.060638 728.441223,275.560791 739.717041,278.847168 
	C745.722900,280.597565 750.328247,284.181030 753.943481,290.018677 
	C757.463318,304.488495 750.242310,311.140991 728.962036,313.576172 
	C728.457703,318.092163 727.828857,322.681335 727.462341,327.291412 
	C727.077698,332.131317 724.726196,334.596588 719.782654,334.373535 
M733.322876,302.712128 
	C735.181702,302.425262 737.361206,302.647675 738.821716,301.728149 
	C740.841797,300.456238 743.083496,298.563995 743.740784,296.469879 
	C744.126465,295.241211 741.620789,293.105011 740.116150,290.705750 
	C733.205811,287.024109 731.467957,287.859070 730.732483,295.196930 
	C730.584534,296.673431 730.003235,298.239105 730.336304,299.587097 
	C730.580200,300.573883 731.994263,301.271484 733.322876,302.712128 
z"/>
<path fill="#040403" opacity="1.000000" stroke="none" 
	d="
M630.949829,325.064941 
	C627.881042,323.542480 626.899597,321.069794 627.099976,317.702057 
	C627.810730,305.753784 628.443420,293.799103 628.915710,281.839325 
	C629.098816,277.201813 631.835449,276.270599 635.579407,276.606110 
	C646.260925,277.563293 655.053528,281.828735 660.881714,292.041504 
	C663.536438,303.531158 660.415100,312.535492 650.834778,317.765869 
	C644.705139,321.112305 637.611389,322.692749 630.949829,325.064941 
M646.691528,291.422485 
	C644.421631,290.356293 642.151794,289.290100 639.358398,287.977997 
	C638.935669,296.211731 638.565491,303.423553 638.158936,311.342468 
	C639.802368,310.862000 640.961365,310.523132 642.803711,310.015381 
	C652.414062,304.824249 654.052307,297.682953 646.691528,291.422485 
z"/>
<path fill="#0C0B09" opacity="1.000000" stroke="none" 
	d="
M792.497437,327.483551 
	C792.773804,325.925629 792.698242,324.591980 793.289062,323.699371 
	C793.822205,322.893829 795.153076,322.064301 796.005737,322.179596 
	C796.835083,322.291748 797.974426,323.500153 798.143982,324.386627 
	C798.480774,326.147797 798.106262,328.034302 798.311462,329.836487 
	C798.397217,330.590302 799.211426,331.261169 799.694458,331.969757 
	C800.479431,331.387115 801.715759,330.950195 801.960083,330.193085 
	C802.566895,328.313202 802.509766,326.216003 803.139221,324.347595 
	C803.495728,323.289459 804.680664,322.510406 805.492432,321.605652 
	C806.464111,322.567535 808.082886,323.419861 808.268250,324.514862 
	C808.618347,326.582977 808.263733,328.806122 807.988220,330.937256 
	C807.332275,336.011566 806.551819,341.069794 805.829468,346.080658 
	C801.331055,346.096741 801.331055,346.096741 800.328369,338.215240 
	C794.252502,339.448212 797.949829,345.506714 794.856201,348.386200 
	C791.716187,348.450378 790.167664,347.026611 790.693359,343.276367 
	C791.409180,338.169800 791.867188,333.027100 792.497437,327.483551 
z"/>
<path fill="#100F0D" opacity="1.000000" stroke="none" 
	d="
M760.528564,330.133270 
	C764.887878,332.289825 765.056519,335.340546 763.129883,338.873138 
	C764.452148,339.875549 766.160583,340.530090 766.556396,341.648987 
	C766.961060,342.792816 766.226074,345.544861 765.735474,345.607758 
	C762.148315,346.067841 758.432678,346.447998 754.902954,345.906311 
	C753.752380,345.729767 752.188232,342.691925 752.277771,341.042297 
	C752.537659,336.258575 753.756958,331.535065 754.195618,326.750824 
	C754.709045,321.151642 758.607849,322.191315 762.200745,322.075531 
	C766.165649,321.947784 767.539490,323.878448 767.359009,327.562866 
	C764.978088,328.292114 762.735474,328.979034 760.528564,330.133270 
z"/>
<path fill="#807666" opacity="1.000000" stroke="none" 
	d="
M719.852844,334.702942 
	C724.726196,334.596588 727.077698,332.131317 727.462341,327.291412 
	C727.828857,322.681335 728.457703,318.092163 728.962036,313.576172 
	C750.242310,311.140991 757.463318,304.488495 754.123535,290.302429 
	C759.434631,295.361694 759.348816,303.294006 753.752014,309.455231 
	C748.122498,315.652557 740.893799,317.245361 732.159546,315.993988 
	C731.558777,321.339844 731.214478,326.564423 730.331482,331.696320 
	C729.299561,337.694458 724.553406,339.101959 719.852844,334.702942 
z"/>
<path fill="#100F0D" opacity="1.000000" stroke="none" 
	d="
M783.871704,329.993713 
	C781.911621,330.810211 779.856262,331.168396 778.779175,332.389557 
	C777.614380,333.710052 777.363037,335.836243 776.713318,337.611084 
	C778.297241,338.122650 779.852417,338.786041 781.475098,339.092987 
	C782.576538,339.301361 784.057800,338.553680 784.856628,339.053223 
	C785.937256,339.728912 786.960022,341.115601 787.171631,342.341522 
	C787.309204,343.138428 786.102356,344.831024 785.249207,345.024170 
	C780.724792,346.048248 776.312378,345.858673 772.894104,342.072998 
	C770.003662,338.871857 769.832214,335.163452 771.498169,331.427307 
	C773.446899,327.056976 776.739868,324.134247 781.736633,324.021118 
	C782.925842,323.994202 784.817566,324.947601 785.168335,325.899017 
	C785.564453,326.973755 784.587219,328.554657 783.871704,329.993713 
z"/>
<path fill="#13110F" opacity="1.000000" stroke="none" 
	d="
M743.388916,334.172821 
	C743.048645,338.439697 742.727295,342.226501 742.393372,346.161346 
	C738.452332,346.818542 736.783752,345.387787 736.989624,341.728638 
	C737.120422,339.404846 737.155762,337.071075 737.401550,334.759583 
	C737.675476,332.183716 738.049683,329.823944 734.582886,328.898376 
	C733.702148,328.663239 732.449402,326.591034 732.726746,325.965363 
	C733.205933,324.884369 734.683655,323.716583 735.858643,323.579315 
	C738.635498,323.254883 741.481018,323.492462 744.297974,323.543671 
	C747.868408,323.608582 749.368347,325.447418 748.941589,328.882751 
	C748.551147,328.653107 748.160706,328.423462 747.770203,328.193848 
	C746.316101,330.026825 744.861938,331.859802 743.388916,334.172821 
z"/>
<path fill="#807666" opacity="1.000000" stroke="none" 
	d="
M681.929199,326.621094 
	C703.425171,325.320099 713.824890,309.047302 707.133179,286.295746 
	C708.042175,286.822968 709.177612,287.613739 709.801697,288.698639 
	C716.730164,300.741730 710.504639,321.286774 698.042969,327.299225 
	C692.736816,329.859344 687.293762,330.740143 681.929199,326.621094 
z"/>
<path fill="#807666" opacity="1.000000" stroke="none" 
	d="
M631.055176,325.411652 
	C637.611389,322.692749 644.705139,321.112305 650.834778,317.765869 
	C660.415100,312.535492 663.536438,303.531158 661.072754,292.323090 
	C666.071777,297.211609 666.507996,305.992340 661.989380,313.001465 
	C655.890137,322.462311 645.974854,325.428833 635.848511,327.741028 
	C634.506714,328.047424 632.733826,326.465668 631.055176,325.411652 
z"/>
<path fill="#1C1A17" opacity="1.000000" stroke="none" 
	d="
M738.724060,652.799622 
	C738.724060,655.397461 738.724060,657.995239 738.724060,660.593079 
	C738.303101,660.977295 737.882080,661.361511 737.461121,661.745728 
	C734.858337,655.708130 732.450195,655.578674 730.504089,661.203674 
	C727.679321,657.081482 731.083191,646.477356 735.295410,645.469421 
	C736.054993,645.287659 737.660278,646.349731 737.995361,647.188843 
	C738.586853,648.669861 738.501160,650.421326 738.737671,652.488892 
	C738.776428,652.918152 738.724060,652.799622 738.724060,652.799622 
z"/>
<path fill="#100F0D" opacity="1.000000" stroke="none" 
	d="
M612.997070,647.387146 
	C614.658630,642.338928 617.584106,645.056274 619.634705,646.202576 
	C622.740051,647.938293 624.329041,651.141724 621.840942,654.141479 
	C619.919495,656.458008 616.746704,657.736633 612.984436,660.238770 
	C612.984436,654.919495 612.984436,651.352417 612.997070,647.387146 
z"/>
<path fill="#13110F" opacity="1.000000" stroke="none" 
	d="
M703.981262,655.425598 
	C704.164917,653.544617 704.291016,652.064026 704.490417,650.593384 
	C704.872437,647.776428 705.150269,644.197449 709.077515,645.208801 
	C711.302917,645.781921 712.990784,648.441956 714.920776,650.162109 
	C713.031555,651.862244 711.178650,653.606018 709.225281,655.228943 
	C708.788818,655.591553 707.999939,655.529785 707.826172,655.566833 
	C706.996521,657.828430 706.297852,659.733093 705.599121,661.637817 
	C705.051697,661.526184 704.504211,661.414612 703.956787,661.303040 
	C703.956787,659.478821 703.956787,657.654663 703.981262,655.425598 
z"/>
<path fill="#0C0B09" opacity="1.000000" stroke="none" 
	d="
M682.004578,648.813110 
	C682.058655,650.166016 682.176270,651.177063 682.049988,652.156738 
	C681.587402,655.745239 680.034973,658.914246 676.104004,658.882751 
	C674.400452,658.869141 671.823364,656.868164 671.206970,655.194031 
	C669.906067,651.661072 670.109192,647.530396 673.839233,645.451782 
	C677.101074,643.633850 680.333618,644.520081 682.004578,648.813110 
M678.773682,652.958557 
	C678.199707,651.293274 677.625732,649.627930 677.051758,647.962646 
	C676.076538,648.657471 674.349731,649.282471 674.277344,650.061218 
	C674.109070,651.871887 674.738464,653.756653 675.044617,655.611389 
	C676.181946,654.970764 677.319275,654.330139 678.773682,652.958557 
z"/>
<path fill="#100F0D" opacity="1.000000" stroke="none" 
	d="
M625.900757,648.217285 
	C627.758301,644.610901 630.938477,643.541565 633.523926,645.400574 
	C635.322571,646.693848 636.829407,650.385681 636.289551,652.431641 
	C635.621765,654.962646 633.090759,657.904846 630.658325,658.848572 
	C627.301270,660.150940 625.721313,656.852112 625.219727,653.947754 
	C624.924866,652.240540 625.556030,650.373352 625.900757,648.217285 
M628.670105,650.157532 
	C628.784363,652.082397 628.898682,654.007263 629.052979,656.607117 
	C633.412170,654.737915 633.929321,652.192932 632.935242,649.318665 
	C632.804565,648.940796 630.321411,649.376526 628.670105,650.157532 
z"/>
<path fill="#1C1A17" opacity="1.000000" stroke="none" 
	d="
M720.028687,659.009460 
	C718.762329,658.282471 717.155701,657.474426 717.208923,656.796753 
	C717.480591,653.338928 717.947449,649.855530 718.798950,646.495972 
	C719.602539,643.325378 723.370544,643.328186 726.724121,646.801025 
	C724.904358,647.378418 723.353821,647.870361 721.196533,648.554871 
	C722.569397,649.723938 723.559326,650.566895 724.959106,651.758789 
	C723.361694,652.704895 722.114990,653.443298 720.916504,654.153137 
	C721.156433,654.724670 721.200989,655.180725 721.413452,655.281067 
	C722.987854,656.024292 724.595581,656.696777 726.192810,657.391479 
	C724.279846,657.923828 722.366882,658.456177 720.028687,659.009460 
z"/>
<path fill="#13110F" opacity="1.000000" stroke="none" 
	d="
M658.351379,655.539429 
	C659.880676,655.904602 660.967041,656.270020 662.053406,656.635376 
	C661.993652,657.221252 661.933899,657.807068 661.874146,658.392883 
	C659.002686,658.629883 656.131287,658.866821 652.477905,659.168335 
	C653.105835,654.428711 652.948792,650.127991 654.361328,646.426086 
	C655.912964,642.359802 659.196289,644.238586 663.296387,646.181824 
	C660.469604,647.218994 658.826843,647.821655 656.691162,648.605225 
	C657.953003,649.715332 659.015930,650.650330 660.135376,651.635132 
	C658.447876,652.827820 657.377747,654.833557 658.351379,655.539429 
z"/>
<path fill="#13110F" opacity="1.000000" stroke="none" 
	d="
M758.807312,658.856812 
	C756.976257,658.867310 755.554443,658.867310 753.510254,658.867310 
	C754.085815,654.469055 754.390320,650.538818 755.167358,646.704346 
	C755.806702,643.548828 759.270447,643.359009 763.548401,646.635315 
	C761.425293,647.325439 759.761230,647.866333 757.550354,648.584961 
	C758.970337,649.823242 760.029602,650.746887 761.585144,652.103333 
	C759.818787,652.895691 758.595764,653.444275 756.317566,654.466187 
	C759.113647,655.283997 760.931519,655.815674 762.749390,656.347351 
	C762.837830,656.733765 762.926331,657.120239 763.014771,657.506714 
	C761.748718,657.953247 760.482605,658.399841 758.807312,658.856812 
z"/>
<path fill="#1C1A17" opacity="1.000000" stroke="none" 
	d="
M684.714050,656.232910 
	C685.071167,653.520935 685.177734,651.177368 685.711365,648.935547 
	C686.612122,645.151184 691.530090,644.150757 695.211121,647.365112 
	C692.896362,648.271179 690.829468,649.080261 687.608154,650.341187 
	C690.283508,651.144409 691.697937,651.569092 694.782104,652.495056 
	C691.822998,653.967590 690.183044,654.783630 688.334656,655.703430 
	C687.924255,657.297302 687.422241,659.247375 686.920166,661.197388 
	C686.330139,661.176208 685.740112,661.155029 685.150085,661.133850 
	C684.985229,659.638245 684.820312,658.142639 684.714050,656.232910 
z"/>
<path fill="#13110F" opacity="1.000000" stroke="none" 
	d="
M650.047852,648.846191 
	C648.519592,653.036499 646.954102,656.924683 645.388550,660.812866 
	C644.721924,660.839905 644.055298,660.866943 643.388672,660.893982 
	C641.703613,656.525391 640.018494,652.156738 638.333435,647.788086 
	C639.034058,647.400879 639.734680,647.013672 640.435303,646.626404 
	C641.773560,649.074097 643.111816,651.521790 644.437866,653.947144 
	C647.611511,648.409058 647.611511,648.409058 650.047852,648.846191 
z"/>
<path fill="#100F0D" opacity="1.000000" stroke="none" 
	d="
M739.171143,652.471924 
	C738.724060,652.799622 738.776428,652.918152 738.748291,652.940613 
	C739.510925,652.362305 740.676880,651.928894 741.031677,651.133545 
	C743.287231,646.078064 746.599731,644.541870 750.332764,647.370850 
	C749.652161,647.875671 749.012451,648.275269 748.461731,648.773254 
	C746.992310,650.102112 745.561218,651.473389 744.114868,652.827759 
	C745.681702,653.537354 747.265320,654.212952 748.808411,654.970825 
	C749.582214,655.350952 750.282349,655.880981 751.015869,656.343140 
	C750.380432,656.948181 749.846130,657.862915 749.093384,658.108704 
	C743.614197,659.897766 741.610474,655.997803 739.171143,652.471924 
z"/>
<path fill="#DBCAAE" opacity="1.000000" stroke="none" 
	d="
M62.101635,574.743774 
	C65.990616,584.363281 69.706070,593.619934 73.597176,602.802124 
	C80.309021,618.640686 81.968918,628.796997 79.222687,641.863831 
	C78.496811,638.298523 78.089401,636.087280 77.593735,633.896118 
	C73.647491,616.450745 65.457382,600.938782 56.478966,585.629333 
	C51.390411,576.952576 48.009453,567.279541 43.772644,558.095215 
	C42.478096,555.289001 43.388966,553.547913 45.684738,551.758118 
	C50.639809,547.895081 55.399559,543.781616 60.822750,539.947021 
	C58.482063,551.644714 58.725655,563.061951 62.101635,574.743774 
z"/>
<path fill="#E0CFB3" opacity="1.000000" stroke="none" 
	d="
M695.111938,289.871735 
	C700.437317,296.090668 698.284790,310.212952 691.140076,314.020844 
	C689.405945,314.945129 686.847412,314.322723 684.427856,313.666809 
	C684.088745,309.448730 683.725891,305.958710 683.943298,302.505219 
	C684.466553,294.196075 687.051147,291.417236 695.111938,289.871735 
z"/>
<path fill="#807666" opacity="1.000000" stroke="none" 
	d="
M694.973022,289.546021 
	C687.051147,291.417236 684.466553,294.196075 683.943298,302.505219 
	C683.725891,305.958710 684.088745,309.448730 684.159790,313.377747 
	C683.135254,312.456329 681.317383,311.096680 681.287781,309.699158 
	C681.174500,304.354065 680.860535,298.811798 682.081543,293.691345 
	C683.578064,287.415649 689.111023,285.892822 694.973022,289.546021 
z"/>
<path fill="#E0CFB3" opacity="1.000000" stroke="none" 
	d="
M740.415588,291.377014 
	C741.620789,293.105011 744.126465,295.241211 743.740784,296.469879 
	C743.083496,298.563995 740.841797,300.456238 738.821716,301.728149 
	C737.361206,302.647675 735.181702,302.425262 733.273010,302.032593 
	C734.273560,297.056519 732.399658,290.651581 740.415588,291.377014 
z"/>
<path fill="#807666" opacity="1.000000" stroke="none" 
	d="
M740.265869,291.041382 
	C732.399658,290.651581 734.273560,297.056519 733.054932,301.725525 
	C731.994263,301.271484 730.580200,300.573883 730.336304,299.587097 
	C730.003235,298.239105 730.584534,296.673431 730.732483,295.196930 
	C731.467957,287.859070 733.205811,287.024109 740.265869,291.041382 
z"/>
<path fill="#E0CFB3" opacity="1.000000" stroke="none" 
	d="
M646.920105,292.071350 
	C654.052307,297.682953 652.414062,304.824249 642.237183,309.803467 
	C641.670593,303.684845 641.670593,297.778076 641.670593,291.605103 
	C644.035156,291.815125 645.477600,291.943237 646.920105,292.071350 
z"/>
<path fill="#807666" opacity="1.000000" stroke="none" 
	d="
M646.805786,291.746918 
	C645.477600,291.943237 644.035156,291.815125 641.670593,291.605103 
	C641.670593,297.778076 641.670593,303.684845 641.895508,309.887939 
	C640.961365,310.523132 639.802368,310.862000 638.158936,311.342468 
	C638.565491,303.423553 638.935669,296.211731 639.358398,287.977997 
	C642.151794,289.290100 644.421631,290.356293 646.805786,291.746918 
z"/>
<path fill="#DBCAAE" opacity="1.000000" stroke="none" 
	d="
M678.615112,653.323975 
	C677.319275,654.330139 676.181946,654.970764 675.044617,655.611389 
	C674.738464,653.756653 674.109070,651.871887 674.277344,650.061218 
	C674.349731,649.282471 676.076538,648.657471 677.051758,647.962646 
	C677.625732,649.627930 678.199707,651.293274 678.615112,653.323975 
z"/>
<path fill="#D5C6AA" opacity="1.000000" stroke="none" 
	d="
M628.798950,649.796509 
	C630.321411,649.376526 632.804565,648.940796 632.935242,649.318665 
	C633.929321,652.192932 633.412170,654.737915 629.052979,656.607117 
	C628.898682,654.007263 628.784363,652.082397 628.798950,649.796509 
z"/>
</svg>